/* XPM */
static char *_0659_d35bd69117189d8f9e169ad6c0872364daa7e97415309ae4d1ecd7cab33606c9[] = {
/* columns rows colors chars-per-pixel */
"128 128 66 1 ",
"  c #0B0B0B",
". c #131313",
"X c #1B1B1B",
"o c #2B230F",
"O c #332B13",
"+ c #3F2F17",
"@ c #232323",
"# c #272727",
"$ c #2F2F2F",
"% c #373737",
"& c gray23",
"* c #430000",
"= c #4F0000",
"- c #5B0707",
"; c #670B0B",
": c #6B0F0F",
"> c #731313",
", c #771717",
"< c #7F1B1B",
"1 c #43331B",
"2 c #4B371B",
"3 c #533F1F",
"4 c #5F4323",
"5 c #6B4727",
"6 c #774F2B",
"7 c #7F532F",
"8 c #434343",
"9 c gray28",
"0 c #4B4B4B",
"q c gray31",
"w c gray34",
"e c #5B5B5B",
"r c gray39",
"t c gray42",
"y c #6F6F6F",
"u c #777777",
"i c gray50",
"p c #831F1F",
"a c #8B2323",
"s c #8F2B2B",
"d c #972F2F",
"f c #A33B3B",
"g c #AF7B1F",
"h c #875733",
"j c #8F5F37",
"k c #9B633B",
"l c #A36B3F",
"z c #AB6F43",
"x c #B37347",
"c c #BF7B4B",
"v c #9B7F6B",
"b c #CB7F4F",
"n c #9F8363",
"m c #CF8353",
"M c #D78B5B",
"N c #F7AB7B",
"B c #838383",
"V c #8B8B8B",
"C c #939393",
"Z c #979797",
"A c #9F9F9F",
"S c #A7A7A7",
"D c gray67",
"F c gray70",
"G c #B7B7B7",
"H c #FFBB93",
/* pixels */
"0yyuuytteuuruutuuutuuutuuutuuutuyuuttywuutrtutuuuuuuwuuuuuuuuuuwtrtttttwttrrtrttttquytyuuyyuyyuuyuuuuuwuuuuuyyyuyuwuuuuwttyuuyy0",
"#yyuuytteuuruutuuutuuutuuutuuutuyuuttywuutrtutuuuuuuwuuquuuuuuuwtrtttttwttrrtrttttquytyuuyyuywww2wwuuuwuuuuuyyyuyuwuuuuwttyuuyy#",
"$yyuuytteuutuq*quq*quq*q88*quq*qyuuttywuutrtutuuuuuwtuqquuuuuuuwtrtttttwttrrtrttttquytyuuyyuywuuuuwuuuwuw<<<<<<<wuwuuuuwttyuuyy$",
"#qyuuytteuutuqequqequqeewwwquqeqyuutyywuutrtutuuuuwttqwquuuuuuuwtrrrrrwwttrrtrttttquytyuuyqqqqqquuwuuuw=;>>>>>>>;=wuuuuwttyuuyq#",
"#qrttreeeeq9qqeqeqeqeqeewwwqeqeqqeq9qqeewwqweweewwwwwwwquuuuuuuwtttttttrttwrtrttttqtrwrttrqwwwwquuwuuuwuw;;;;;;;wuwuuuuweerttrq#",
"#qyuuytteuutuqequqequqeewwwquqeqyuuuuuuuutttutuuuuuuuwwquuuuuuuww2q2q2q2q2q2q2q2q2quytyuuyqqqqqquuwuuuwuuuuuyyyuyuwuuuuwttyuuyq#",
"#uyuuytteuutuqequqequqeewwwquqeqyeueueueueteueueuwuwuwwquuuuuuuuuququququqrququququuytyuuyuuuwuuuuwuuuwuw<<<<<<<wuwuuuuwttyuuyu#",
"@wwwwq99euutuqequqequqeewwwquqeqyuuuuuuuutttutuuuuuuuwwquuuuuuuww2w2w2w2w2q2w2w2w2wwq2qwwwwuuwuuuuwuuuw=;>>>>>>>;=wuuuuw99qwwww@",
"@wyuuytteuutuqequqequqeewwwquqeqyuuuuuuuutttutuuuuuuuwequuuuuuuwurururururrrurururuuytyuuywuueuuuueuuueue;;;;;;;eueuuuuettyuuyw@",
"$wyuuytteeeqeqeqeqeqeqeewwwqeqeqqeeeeeeeeqqqeqewwwwwww=>>>>>>>>>=uuuuuuuuuruuruuuuuuytyuuywuueuuuueuuueuuuuuyyyuyueuuuuettyuuyw$",
"$wywwqtteuutuqequqequqeewwwquqeqyuuuuuwuuttqrtqeeeeeee=>>>>>>>>>=uwwwuwwwuqwwrwwwuwwqtqwwywuueuuuueuuueue<<<<<<<eueuuuuettqwwyw$",
"$wywuqtteuutuqequqequqeewwwquqeqyuuuuuwuutqerqeeeeeeeeequuuuuuuwuuwuwuwuwuquwrwuwuwuqtquwywuueuuuueuuue=;>>>>>>>;=euuuuettquwyw$",
"$wwwuqqqeuutuqqquqqquqqq888quqqqyuuuuuwwwqteqqqqqqqqqqqquuuuuuuwwwwuwwwuwwquwwwuwwwuqqquwwwuueeeeeeuuueue;;;;;;;eueuuuueqqquwww$",
"$uuwuqtteuutuuuuuuuuuuuutttuuuuuyuuuuutrrtteuuuuuuuuuuuuuuuuuuuuuuwuwuwuwuquwrwuwuwuqtquwuuuuuuuuuuuuueuuuuuyyyuyueuuuuettquwuu$",
"#qq$q$qqqqq8qqqqqqqqqqqq888qqqqq8qqqqqq99q989qqqqqqqqqqqqqqqqqqqqq$q$q$q$q$q$q$q$q$q$q$q$qqqqqqqqqqqqqqqqqqqqqqqqqqqqqqqqq$q$qq#",
"@&&$&$&&&&&$&&&&&&&&&&&&$$$&&&&&%&&&&&&&&&%$%&&&&&&&&&&&&&&&&&&&&&$&$&$&$&$&$&$&$&$&$&$&$&&&&&&&&&&&&&&&&&&&&&&&&&&&&&&&&&$&$&&@",
"#1&&%&$8wqqqwwqwqqwqwwwq&98wwwqqwqwwwqw9q8qwwwww&91q9qwq3wwwqwrwwqqqwqwwqwwwrw+qwwwqqwqqqwwwwwww&1wwqwqwwwwqwwq1qwqwww7w8$09991#",
"#1&&%&$8wqqqwwqwqqwqwwwq&98wwwqqwqwwwqw9q8qwwwww&92q9qwq3wwwqwrwwqqqwqwwqwwwrw+qwwwqqwqqqwwwwwww81wwqwqwwwwqwwq1qwqwww7w8$09991#",
"#18&%08wtrrrtrrtrrtrtttw9ewrttrrtrtttwtweqwtttttqw4wqwtw6tttwtittrrrtrttrtttBtqwtttwwtrrrttttttt94trurwtiitwttw4wtttrrztw80qqq1#",
"#3ryw08wtrwVtrrtttttuwiw9ewrttwitr8$$$$$$$$$$$$$$$$$$$$$$$$$$$$$$$$$$rtwqwwwBtqwtt9$$$$$$$$$$8ttq4utwtwt7Viqqqq1qqttwVxtw80ryw3#",
"#38q808wtrq%trrtttttt9%w9ewrtt9$t8$$$$$$$$$$$$$$$$$$$$$$$$$$$$$$$$$$qrterttwBtqwtt9$$$$$$$$$8wttw4iutBut72Vqwtt4wqttq%ntw808q83#",
"#3&$&08wtrrqtrrttttttwewqewrttqw888$$$$$$$$$999$$$$$$$$$$$$$$$$$$$89wrterttwBtwwttw9$$$$$$$8wwttw4trtuBBu27w8wt4wqttrqvtw80&$&3#",
"#3&&&08wtrretrrtttwitwewqeweitq&88q9888&%$889w9&%&1&%&&&1888&8q888q9wrterttwBtwwttww9&8&&88wwwttw4eew92+witwe&w4wqttrevtw808&83#",
"#3&&&08wtrretrrtttq%twrwqrw9%r%&88eqeweq98qe9e9eqq4qe9wq4eeeqereeqw9wrterttwBtwwttwwq&qwqewwwwttw49rw322+wiweq83wqttrevtw80qqq3#",
"#1&9%08wtrrrtrrtttwqtwrwqrwqe8%&8qrqrwrwq8qrqrqrqq4qrwrw5rrrwryrrww9wrterttwBtwwttwww&wrerwwwwttw4w8w392++wurqe2wqttrrvtw809991#",
"#1&9%08wtrwutrrwVtwqtwrwhlwq88%&8qrqrereq9wtqtqtrw5wtetwjtttrtutrww9wrterttwBtwwttwww8eretwwwwttw4w883w72+22rqe4qqttwuvtw809991#",
"#180%08wtrq%trrq%twqtwrw4ow&88&8wqtwtrreq9wtwtwtrw5wtetejtttrtutrww9wrterttwBtwwttwww8eretwwwwttw4ww81w4652+9et4wqttq%vtw80qqq1#",
"#3ryw08wtrrwtrrw9teqtwrw548&9q&9wwtwrtyrq9etwtwtre5wtrtejtttrtutrww9wrterttwutwwttwww8eretwwwwttw4ww81&34j629tu4wtttrwvtw80ryw3#",
"#38q808wtrrwyrrw9teqtriw5189wqq9rwtwre4tq9etwtwtre5wtrtrltttrtutrww9wrterttwutwwttwww8eretwwwwttw4wwq1&+2549qwr4wtttrwvtw808q83#",
"#3&$&08wtrrryrrw9trqt9%w219qwwwqtwtwrw6qw9etwtwtre5wtrtrbwwq9qwtrww9wrterttwutwwttwww8eretwwwwttw4wwq1&o+43etur4wtttrrvtw80&$&3#",
"#38&808wureryrreqtrwtweq11qqrwwqtwtwrewqwqetwtwtre6wtrtrvwttrtwtrwwqwrterttwutrwttwww8eretwwwritw4wwq8&o++385tt4wtttervtw808&83#",
"#390808wuewByrreqtwitw8&11wqrwwqtwtwrtewwretwtwtte6wtrtrvwtwrtwtrwwqwrterttwutrwttwww9rretwwwrutw4wwqq&o++o98et4wtttwBvtw80qqq3#",
"#390808wteq%yrrewt9$r8821&wwrwwqtwtwrrrteeetwtwtte6wtrtrvwttrtwtrwwqwrterttwutrwttwww9rretwwwwttw4wwqw&o+ooqrwt4wtttq%itw80qqq3#",
"#390808wtetqyrrrwtq9w88218eetwwwtwtwrerreqetwtwttr6wtrtrvwtwrtwtrwwqwtterttwutrwttwww9rretwrweyyw4wwqwq++oo&qwt4wttttqitw80qqq3#",
"#3ryw08wtetryrrwit9888&1&qertwwwtwtwrerewqetwtwttr6wtrtriwttrtwtrwwqwtterttwutrwttwww9tretwweriuw4wwqwq3+oo282r4wttttritw80ryw3#",
"#38q808wterryrr1or8&88&28qertwriiutuiuirtruiutwttr6wtrtriwtwrtwtrwwqwtterttwutrwttwww9tretwwr35uw4wwqwr431o1&284wtttrritw808q83#",
"#3&$&08wterryrr5wq&&8&2&8qrrtwtttttttrtqwqwtttwttt7wtrtriwttrtwtrwwqwtterttwutrwttwww9trrtwe91wrw4wwqwr542o12181wtttrritw80&$&3#",
"#38&808wtewByrr4q8&&&2&8qqrrtww98qtq888&&$&8qtwtty7wtrtriwtwrtwtrwwqwtterttwuttwttwww9trrywr22rtw4wwqwt6523+21818tttwButw808&83#",
"#39q808wteq%yrr1&8&&2q88qqrrtwwwtwtwrerwwqetwtwtty7wtrtruwttrtwtrwwqwtterttwuttwttwww9tryiw912ttw4wwqwt65238+181qwttq%utw80qqq3#",
"#39q808wterqyrrq&8&&qw99qqrrtwriiutuiuiuuuuiutwtty7wtrtruwwwwwwtrwwqwtterttwuttwttwww9truyw292itw4wwqwt6525q91218wttrqutw80qqq3#",
"#39q808wtereyrrq&8&qweq9qqrrtwtttttttrtqwwwtttwtty7wtrttutttrtttrwwqwtterttwuttwttwww9ttrtw9w95tw4wwqwt6535qw9118wttreutw80qqq3#",
"#3ryw08wtereyrrqq&8qreq9qqrrtww98qtq88888888qtwtty7wtrttutttttttrwwqwtterttwuttwttwwwqtrttwwwwttw4wwqwt6545qrw91wwttreutw80ryw3#",
"#38q808wteeeyrrqq99wrew9qqrrtwwwtwtwrerwwtrtwtwqwqwqwqwqwqwqwqwqwq9qwtterttwuttwttwwwqtrttwwrwtit4wwqwt6756qrtw&wwtteeutw808q83#",
"#3&$&08wtwwByrrqwq9wrewqqqrrtwwwtwtwrerwrtrtwtq&q&q&q&q&q&q&q%&%&o&qwtterttwyttwytwwwqtrttww9we5t4wwqeu6566qrtw&wwttwButw80&$&3#",
"#38&808wteq%yrrwwwqwreeqqqrttwwwtwtwrerwriiirtreee2qwqwqwqwqw&&q11qqwtterttwyttyiywwwqtrttww2weew4wwqtBh545qrtw8wwttq%ttw808&83#",
"#30q808wrrwqyrrwwwqwrerqqqrttwwwtwtwriAirtiVVBVyyr2qeeeeeeete88w22qqwtterttwyturytwwwqtrttww9wttw4wwqrukh35qrtw8wwttwqttw80qqq3#",
"#30q808wrrwwyrrwwrwwrerqqqrttwwwtwtwrwtwrwtiAAAitw5wtrtttttut98w42qqwtterttwyttwttwwwqtrttwwqrttw4wwqwt5535qrtw9wwttwwttw80qqq3#",
"#30q808wrrrwyrrwwrwwrerqqqrttwwwtwtwrwtwrwwwwwwwww5wtrtttttutq8w42qqwtterttwyttrytwwwqtrttwwwwttw4wwqwt4436qrtw9wwttrwttw80qqq3#",
"#3ryw08wrrreyrrwwrtiiiiuqqrttwwurwtwiwtwiwwtttttww7titiitttutq9w42qqwtterttwytyrttwwwqtrttwwrwttw4wwqwt65&hqrtwqwwttrettw80ryw3#",
"#88q808wrrwuyrrwwrwtCAACuqrttwuCuuCuCutuCuwtttttwuluCuCtwttutw9w42qqwtterttwyturttwwwqtrttwwqwtte5wwqwt65&ktutwqwwttwuttw808q88#",
"#8&$&08wrrq%yrrwwrwqtAFFAurttuFFiiFiFFFAACwtttttwCbuiBtwwttutw9w42qqwtterttwytyrttwwwqtrttwwqwtte5wwqwt758he4ewqwwttq%ttw80&$&8#",
"#88&808wrrwwyrrwwrwqwttrttrtttttertetttrttwtqtqtww4qwqwwwttutw9w42qqwtterttwtttrttwwwqtrttwwqwtte5wwqwt7585weteqwwttwwttw808&88#",
"#80q808wrrwwyrrwwrwqwwtrtrwrrrrtertetttrttwtttttww4qwqwwwttute9w42qqwtterttwtttrttwwwqtrttwwqwtte5wwqwt7596tue4wwwttwwttw80qqq8#",
"#80q808wrrwryrrwwrwqwwtrtrrtttrtertrtttrttwt>t>tww4qwqwwwttute9w42qqwtterttwtttrttwwwqtrttwwqwtte5wwqwt759huk49wwwttwrttw80qqq8#",
"#80q808wrrwryrrwwrwqwwtrtrrtttrtertrtttrtt98;8;89w5qtqwwwttuteqw42qqwtterttwtttrttwwwqtrttwwqwtte5wwqwth59hr44qwwwttwrttw80qqq8#",
"#8ryw08wrrwByrrwwrwqwwtrtrwrrrrtertttttrtttt;t;ttw5qwqwwwttutrqw42qqwtterttwtttrttwwwqtrttwwqwtte5wwqwth5q4wwwwwwwttwBttw80ryw8#",
"#88q808wrrq%yrrwwrwqwwtrttrtttt8#@@@@8trtttt;t;ttw5qtqwwwttutrqw42qqwtterttwtttrttwwwqtrttwwqwtte5wwqwth5q3wrtwwwwttq%ttw808q88#",
"#8&$&08wrrtryrrwwrwqwwtrttrttttq####$qtrtttt=t=ttwqqtqwwwttutrqw42qqwtterttwtttrttwwwqtrttwwqwtte5wwqwth5w5wrtwwwwtttrttw80&$&8#",
"#88&808wrrttyrrwrBVCuttrttrttftw===%%wtrttttwtwttwqqtqwwwttutrqw42qqwttewwwwtttrttwwwqtrttwwqwtte5wwqwth5w5wetwwwwttttttw808&88#",
"#80q808wrtttyrrriCCAAAACBtrttqtw**;&&wtrt8$$$$$$$8qqtqwwwttutrqw42qqwtttrttttttrttwwwqtrttwwqwtte5wwqwth5w5wetwwwwttttttw80qqq8#",
"#899%08wrtttyrrteetwttttwtrttwtw$&;&&wtrtw8$$$$$89qwtqwwwttutrqw42qqwttruuuuuuurttwwwwtrttwwqwtte5wwwwth5w5werwwqwttttttw809998#",
"#8qq808wrtwByrrtewtettttwtrttftw;;;&&wtrtwq8$$$8q9qwtqwwtiiiiituk7tqwttwtttttttwttwwtwwwiiitwwtte5wwtiukht7werwwqwttwBttw80qqq8#",
"#8ryw08wrtq%yrrtewtrttttwtrttqtw**;&&wtrtwq9qeewq9qetqwtiCAACiuickitwttwtwtttwtwttwtitutSSCitwtte5wtiCCzxihtuCuuuwttq%ttw80ryw8#",
"#88q808wrttryrrtewtrttttwtrttwtw$&;&&wtrtww9wrrwq9qetqwiADGGDCtvmvviwttwtt282ttwttwiAiiiFFFAiwtte5wiSSAmmimuxSuurwtttrttw808q88#",
"#8&$&08wrtttyrrtewtrttttwtrttftw;;;&&wtrtww9wttwq9qrtqwttrtrrtqw44wtwttqqqqwqqqqttwttetrtttttwtte5wtrtw66rltrtrrrwttttrtw80&$&8#",
"#88&808wryttyrr9$$$$$88qwtrttqtw**;&&wtrtww9wttwq9qrtqwttrtertqw44wtwttr8qwrwq8rttwttetrtttttwtte5wtrte66tltrtrrrwttttrtw808&88#",
"#8qq808wryttyrrw9$%8wwrertrttwtw&&;&&wtrtww9wttwq9qrtqwttrtwrtqw44wtwttrr8wtt8rtttwttetrtttttwtte5wtrte66tltrtrr9wttttrtw80qqq8#",
"#899%08wrywuyrrwwqwqwwrertrttwtw&&;&&wtrtww9wttwq9qrtqw8$$$$$$$$o$$8wttrt4wtt4rtttw9$$$$$$$$9wtte5w9$$$oo$o$$$$$9wttwurtw809998#",
"#8qq808wryq%yrrwwewqwwrertrttwtw&&;&&wtrtww9wttwq9qrtqwq&$$$$$$$o$8qwttrt4wtt4rtttww8$$$$$$8wwtte5ww9$$oo$o$$$$$qwttq%rtw80qqq8#",
"#8ryw08wryrryrrwwrwqwwrer8$$$$$$&&;&&wtrtww9wttwq9wrtqww9%%$%%$%2&9wwttrt4wtt4rtttwww8$$$$8wwwttr5www9$oo$o$$$$$wwttrretw80ryw8#",
"#88q808wrytryrrwwrwqwwrerw@@@@@@&&;&&wtrtwwqwttwq9wrtqwwqwwqwwqw2qqwwttrt4wtt4rtttwwwwwwwwwwwwttr6wwww%++%3%%%%%wwrttretw808q88#",
"#8&$&08wryttyrrwwrwqwwrwrw======;;;&&wtrtwwqettwq9ertqwwwttwttwt7qwwwttrruutuurtttwwwwtrttwwwwttr6wwwww33q6qwwwwwwrttterw80&$&8#",
"#88&808wryttyrrwwytqwwrtrw*********++wtrtwwqwttwq9ertqwwtturuutuhtwwwttrwtuuutwtttwwttutuuutwwttt6wwtur65rlwuuuuuwrtttwrw808&88#",
"#8qq808wrywuyrrwtuutwwrtrw+++++++++++wtrtwwqwttwq9ertwwtututuutukttwwttrwtttttwtttwuCuCuCCCuuwttt6wuiitj7tmtiuuuAurtwuwrw80qqq8#",
"#8qq808wryqOyyrwuBAAtwrwrw======;;;++wtrtwwqwttwq9ertwtCCuCuuutuztCtwtwrq2qqwwwtwtuCABABAAACuuttt7uADDuljumuCiuiACrtqOwrw80qqq8#",
"#8qq808wryttyyrCuCAACtrtrw********;++wtrtwwqwttwq9erttAAAuAuuuuccuuAttrrrwrwrrrtrtCAAuAuAAAAACtty7CDDxxcxiNlxiuiACrtrrwrw80qqq8#",
"#8ryw08wryyyttrrqrttttrtrw+++++++*;++wtrtwwqrttwq9erttuutwuwwqwt4qrtttrrwqwqwwwtrttttrtrttttttttBetrtrjljqvqrw8wqrBtrrwrw80ryw8#",
"#88q808wruuyttrrqrttttrtruCuuuuCuuCCCutrtwwqrttwq9erttuutwuwwqwt4qrtttrrwrtrttwtrttttrttttttttttyetrtr6zhqvqrw8wqrutrrwrw808q88#",
"#8&$&08wtuyuttrrqrttttrtrttrwwrtwrttrttrtwwqrttwq9rrttuutwuwwqwt4qrtttrrwrtrttwtrttttrttttttttttretrtr6zhqvwrw8wqrutrrwrw80&$&8#",
"#88&808wtuuuttrrqrttttrtrttrwwrtwrrtrttrtwwqrttwq9rrttuutwuwwqwt4wrtttrtwrtrtwwwqwwwwwwwwwwwwwtutrtrtr6xhqvwrw8wqrutrrwrw808&88#",
"#8qq808weeeeeeeq8qerrrerwreq99qe9qqwrrtrtwwqrttww9rrttuutwurwqwt4wrtttrtwrtrtwttrttttttttttttwtuurtrtrqchqvwrw8wqruttrwrw80qqq8#",
"#899%08wtuuttttrqrttttrtrtttwwrtwtttrttrtwwqrttww9rrttyutwurwqwt4wrtttrtwrtrtwwwqwwwwwwwwwwwwwtutrtrtrqckwvwrw9wqruttrwrw80qqq8#",
"#8qq808wtuuttwwwqwwwtwqwrwwwqqqwqwwwwwtrtwwqrttww9rrttyutrurwqwtqwrtttrtwrtrtrwtrtttttttttttttuttrtrtrwvkwuwrw9wqruttrwrw80qqq8#",
"#8ryw08wtuuttwtwqwtwtwtwrwttwtrtrtttrwtrtwwqrttww9rrttyutrurwqwtqwrtttrtwrtrtrwtrttttttttttttttyuytrtrwukwuwrw9wqruttrwrw80ryw8#",
"#88q808wtuuttwtwqwtwtwtwrwttwtrtrtttrwtrtwwqrttww9rrttyutrutwqwtwwrtttrtwrtrtrwtrttrywtrywtrywyuhutrtrwukwuwrwqwqrutttwrw808q88#",
"#8&$&08wtuq998&8&&89999qqqqqqtr8r8t8rwtrtww>ppp>w9trttyytrutwqwtwwrtttrtwrtrtrwtrtt8q8t8q8t8q8uh4wtttrwtkwtwrwqwwrutttwrw80&$&8#",
"#88&808wtuwttrwrqertrtttttttqtrqrqtqrwtqtww=====wqtrtttytrutrqrtwwrtttrtwrtrtrwtrtt&@&t&@&t&@&trwwtttrwrkwtwrwqwwrtyttrrw808&88#",
"#8qq808wtuqttrwrqertrtttttwtqtrqrqtqrwtrtwwqwwwqwqtrtttytrutrqrtwwrtttrtqqw2wwqtrttwqtttwtt53ttuurtttrwwkwrwrwqwwrtyttrrw80qqq8#",
"#8qq808wtuwttrwrqertrtttttttqtrqrqtqrwtrtwwwtttwwqtrtq$$$$$$$$$$$$$99trtwwrwtrwtrt9$$$$$$$$2&wehurq&&&&&4&&&&&&&&&&&&trrw80qqq8#",
"#8qq808wtuqqq8&8qqqqqqqqqqqqqtrwrwtwrwtrtww>ppp>wqtrtwq$$$$$$$$$$$999trtwwrwtrwtrt99$$$$$$$&wweetrqrtrwwwrwrrwqwwrtt&trrw80qqq8#",
"#8ryw08wtuttrwqwqwrtrttttwttttrtrrtrrwtqtww=====wqtrtwq9$$$$$$$$$9999trtwwrwtrwtrt99q&$$$$4qwwretrqrq......$@.....qt&trrw80ryw8#",
"#88q808wtuwwq8&88qqwwwwwwqwwwtrtrrtrrwtrtwwqwwwqwqtrtwq9q8988&88&99999$$$$$$$$$$$9999q&$$4wqwwretrqrw...4444@...24wt&trrw808q88#",
"#8&$&08wtuwtrwqwqwrtrtttttttwtrtrrtrrwtrtwwwtttwwqtrtwq9wereeqeqq999&$$$$$$$$$$$$$9999qwqwwqwwretrqrw@@gggge$@@g6gwt&trrw80&$&8#",
"#88&808wtuwq98&899qqwwwwwqwwwtrtrrtrrwtrtww>ppp>wqtrtwq9wrtrrwrqq999$$$$$$$$$18$$$$999qrqrwqwwretrqrw@6ggg$e$@5g6gwt&ttrw808&88#",
"#8qq808wtuttrwqreettrttttwttttrtrrtrrwtqtww=====wqtrtwq9wturtwtwq99$$$$$$$$$%$1&$$$899qtetwqwwretrwrw56gg$$e$45g6$wt&ttrw80qqq8#",
"#8qq808wtutttwqr9qqqqqwwtwttttrtrrtrrwtrtwwqwwwqwqtrtwq9wturiwitqeeeqeqeqqeqq94wqe8eeewtetwwwwretrwrw56g$$$eg45g$$wt&ttrw80qqq8#",
"#8qqe08wtytttrqeqtttrttwtwttqwqtwwwrrwtrtwwwtttwwqtrtwq9wturtw6twwrrwrwrqqrqqr2qqr8rrrwtrtwwwwrwtrqruttuiiiCituiuiit&ttrw9eqqq8#",
"#8qqqt%8tytttrqeqeeerttwtwttqtwtwtwrrwtrtwwwtttwwqtrtwq9wtuuuwwwwwrtttwtwwrwqttwqrqrttwtrtwwwwrwtrqrrwwrrtyitwwrwrtt&ttr9tqqqq8#",
"#800qqt9qytttrwrqeterttwt9qwqtwwwtwwqwtrtwwwtttwwqtrtwq9wtuyuwtwtwrtuuttwwrwqturwrqrttwtrtwwwwrwtrqrrwerrttitewrwrtt&tqqtqq0008#",
"#800qqq9qytttrwrwwwwrttwtrrtqtwtwtwtrttrtwwwtttwwqtrtwq9wturuwtr3yrtq6utwwrwttu4wrqrttwtrtwwwwrwtrwrrwerrttitewrwr88&tqtqqq0008#",
"#800qqq;sdd,qrwrwtttrttwtrrt9qwtwtwtrttrtww>ppp>wqtrtwqqwturtwtr23uuwwrtwwrwqwrwqrqrttwtrtwwwwrwtrwrrwerrttitewrwuq:dddaqqq0008#",
"#8rywqq*===*qrwrwwwq9qwwtrrtrrttwtwtrttqtww=====wqtrtwqqwturtwtrwwy5wtrtwwrwq2wwwrwrttrttttwwwrwtrqrrwetrttitewrwrq*===*qqqryw8#",
"#88q8qq9qttttrwrttttrttttrrtrrttwtwtrttrtwwqwwwqwqtrtwqqwturtwtrwyrhwtrtwwrwqttwwrwrttrtuuCutwrwtrqrrwwtrttutwwrwq88+tqtqqq8q88#",
"#8&$&qq;sdd,qrwtttttrttttrrtrrttwtwtrttrtwwwtttwwqtrtwqqwturtrtrwwr7wtrtwwrwqttwwrwrttuuCCCAuurwtrqrrwwtrttutrwrw2q,dddsqqq&$&8#",
"#88&8qq*===*qrwt5wttwwttw5etrrttwtwtrttrtwwuuutwwqtrtwqqwturtrtrwwrjwtrtwwrwwttrwrwruuCAAAAAAtrwtrwrrwrtrttutrwrw+q*===*qqq8&88#",
"#800qqq9qtttttwt&9tt&qtt92etrrttwwqtrttrtwuCCuuwwqtrtwwqwturtrtrwwrjrtrtwwrwwttrwwruCCAMAAAuuurwtrwrrwrtrttutrwrwwuu+tqtqqq0008#",
"#800qq%9qtttttwt8qtt8qttq4etrrttttrtrttrtuCAACuuwqtrtwwqwturtrtrwwrjrtrtwwrrwttwryuuucMBAutt5urwtrqrrwrtrttytrwrwrtt+tqq%qq0008#",
"#8qqq%#%rtttttrt8qtt9wttq5etrrttwwwtrttrtCAAAACitqtrtwwqwturtrtrwwrjrtrtwwrrwrryuCuCABBututtuutwtrqrrwrtrttytrwrwrtt&ttt#%qqqq8#",
"#8qq%#+2rtttttrt8qttqwttq5etrrttwtwtrttrtruCAAACuwtrtwwqtuuuBuuutuucuuuuuruuuuuuuAuCAutuurtuwwurtrqrtwrtrttyttwrwrtt&ttt+#%qqq8#",
"#8qq#%+2rtttttrt9wttqwttw5etrrttwqqtrttrtrtruCAGCutrtwwtuCCuCuuByuBMCCuButuCCuuuBAButuuur4twwwwrtrqrtwrtrttyttwrwrtt&ttt+%#qqq8#",
"#8qq%%+2rtttttrt9wttqwttw6etrrtttrrtrttrtrtrrtuCDCtrtwtCAAABABBAuBBNCAuCBuuAAAuuBurttur82qt9ww9rtrqrtwrtrttyttwrwrtt&ttt+%%qqq8#",
"#8qqttqertttttrtqettqwttw6rtrrtttrrtrttrtrtrrttttttrttAAAAACACCABCCHAACABuBAAAuurtruu53222qw99wrtrq1&&&++&&&&&&&&&&&&tttqteqqq8#",
"#e0qqq%qeeeeeeee99ee99ee959eeeeeeeeeeeeeeeeeeeeeeeeeeeeeeeeeeeeeeeekeeeeeeeeeeeeeer7itteq44ewweeeee6wwq44qwwwwwwwweeeeee%00q0qe#",
"&8ytw0@w8qqqqqq8%%%%%%%%%%%qqqqqqqqqqqqqqqqqqqqqqqqqqqqqqqqqqqqqqqq7qqqqqqqqqqqqqqqqqqqqqqqqqqqqqqq8888888qqqqqqqqqqqqqq@00q0qe#",
"&wSSFFFFFFFSSCureeurrrrjjljjtBSSSFFFFFFFFFFFFFFFFSVuiVFFFFVuAuVAtVtbuVFutrtVFVtttutuVFFFFVByryBZFFFziizzzzzzCFCiVCFFFFFFZZZZZuu&",
"#wuBCCCCCCCButttwrtrwwrtw6ttrtiCCiCCCCCCuruCCCCCCutruuCCCCurirrieirvtBCBrerBCBuwqhttBCCCCBtrwrwrBCC6rte64wtttCyuyuCCCCCCBBBBBBw&",
"#wtq8889888qttttwrtrwwrtw6ttrttttrrtrttttrtttttttttrtttttttrtrrterrvttrtrertrte44ttttttttttrwrwrttr6rte64wtttrwrwrttq888q888qt9#",
"#wte---w---ettq.................................qttrtwVttwVrtwitewivtwVtrwittty6q.................................qte--*e*--et9#",
"#wtuiiiiiiiuttuw@@@@2244@@@@4444@@.@4444@@@@444wuttrt9%tt9%rt9%te9%ut9%tr9%ttyhruw@@@@4444@@@@2444@.@@4114@@@@244wutuiiiuiiiut9#",
"#wtq8889888qtttit$$g66g$$@$gggg$$$@g6gg$$$$gggtitttrtewtteqrtrwtewqutrwtrwrtthtttCt$$gggg$$$@g5gg$$@$gg55$$$$g6gtCttq888q888qt9#",
"#wteaa,w,aaettttZugg66$$$@gggg$$$$6g6g$$$$ggguZttttrtewtteqrttwtewqyttrtrwrtttttttCugggg$$$$5g5g$$$@ggg5@$$$gg6uCttteaa,e,aaet9#",
"#wte,-*w*-,etrywtZug6@$$$6ggg$$$$g6g6$$$$ggguZttttwwwwqwwwqqwwqw9wqwwwwwwqwwwwwttttCugg$$$$g6g5$$$$5ggg@@$$ggg$Crywte,-*e*-,et9#",
"#wte:-*w*-:et8q8ttZu@@$$g6gg$$$$gg6g$$$$ggguZttttwq&&&&&&&$&&&&&$&$&&&&&&$&&&&qwttttCu$$$$gggg@$$$g5gg$@@$gggutr8q8te:-*e*-:et9#",
"#wte-**w**-et&@&tttZytDDCnCDDDDDDAiAiADDDDCZttttwq&$#########################$&qwttttCDDDDDDDZuuZDDiDDDuuBDDDCwr&@&te-**e**-et9#",
"#wtuiiiiiiiutttttttrwwiitrtiBBBBBirtrtiBBitttttwq&$#$wVttwVrtwitewivtwVtrwi9$#$&qwttttBBBBBBBrwrtBBwrBrwwrBBBrwrttttuiiiuiiiut9#",
"#wtttttttttttttttttrwwtrtrttttttttrtrtttttttttwq&$#8q9%tt9%rt9%te9%ut9%tr9%qq8#&&qwttttttttttrwrttrwrtrwwrtttrwrttrrrrrererrrr9#",
"#&%%$$$%$$$%%%%%%%%%%%%%%%%%%%%%%%%%%%%%%%%%%%%%%#X$$$$$$$$$$$$$$$$$$$$$$$$$$$X#%%%%%%%%%%%%%%%%%%%%%%%%%%%%%%%%%%$$$$$$$$$$$$$#",
"..XXXXXXXXXXXXXXXXXXXXXXXXXXXXXXXXXXXXXXXXXXXXXXXX XXXXXXXXXXXXXXXXXXXXXXXXXXX XXXXXXXXXXXXXXXXXXXXXXXXXXXXXXXXXXXXXXXXXXXXXXXX."
};
